<svg width="24" height="24" viewBox="0 0 24 24" fill="none" xmlns="http://www.w3.org/2000/svg">
<path fill-rule="evenodd" clip-rule="evenodd" d="M17 2C17 1.44772 16.5523 1 16 1C15.4477 1 15 1.44772 15 2V4H9V2C9 1.44772 8.55228 1 8 1C7.44772 1 7 1.44772 7 2V4H4.22222C2.99492 4 2 4.89543 2 6V10V20C2 21.6569 3.34315 23 5 23H19C20.6569 23 22 21.6569 22 20V10V6C22 4.89543 21.0051 4 19.7778 4H17V2ZM20 10H4V20C4 20.5523 4.44772 21 5 21H19C19.5523 21 20 20.5523 20 20V10ZM17 4V6C17 6.55228 16.5523 7 16 7C15.4477 7 15 6.55228 15 6V4H17ZM7 4V6C7 6.55228 7.44772 7 8 7C8.55228 7 9 6.55228 9 6V4H7Z" fill="black"/>
</svg>
