<svg width="24" height="24" viewBox="0 0 24 24" fill="none" xmlns="http://www.w3.org/2000/svg">
<path opacity="0.2" d="M2 7C2 4.23858 4.23858 2 7 2H17C19.7614 2 22 4.23858 22 7V17C22 19.7614 19.7614 22 17 22H7C4.23858 22 2 19.7614 2 17V7Z" fill="white"/>
<path fill-rule="evenodd" clip-rule="evenodd" d="M16.7071 8.79289C17.0976 9.18342 17.0976 9.81658 16.7071 10.2071L11.7071 15.2071C11.3166 15.5976 10.6834 15.5976 10.2929 15.2071L7.79289 12.7071C7.40237 12.3166 7.40237 11.6834 7.79289 11.2929C8.18342 10.9024 8.81658 10.9024 9.20711 11.2929L11 13.0858L15.2929 8.79289C15.6834 8.40237 16.3166 8.40237 16.7071 8.79289Z" fill="white"/>
</svg>
