<svg width="24" height="24" viewBox="0 0 24 24" fill="none" xmlns="http://www.w3.org/2000/svg">
<path fill-rule="evenodd" clip-rule="evenodd" d="M17.204 10.7959L19 8.99994C19.5453 8.45469 19.8179 8.18207 19.9636 7.88797C20.2409 7.32842 20.2409 6.67146 19.9636 6.11191C19.8179 5.81782 19.5453 5.54519 19 4.99994C18.4548 4.45469 18.1821 4.18207 17.888 4.03633C17.3285 3.75905 16.6715 3.75905 16.112 4.03633C15.8179 4.18207 15.5452 4.45469 15 4.99994L13.1813 6.8186C14.1452 8.4692 15.5314 9.84476 17.204 10.7959ZM11.7269 8.27305L4.85638 15.1436C4.43132 15.5686 4.21879 15.7812 4.07906 16.0422C3.93932 16.3033 3.88038 16.5981 3.76248 17.1875L3.14709 20.2645C3.08057 20.5971 3.04731 20.7634 3.14191 20.858C3.23652 20.9526 3.40283 20.9194 3.73544 20.8529L6.81242 20.2375C7.40187 20.1196 7.6966 20.0606 7.95769 19.9209C8.21879 19.7812 8.43132 19.5686 8.85638 19.1436L15.7458 12.2542C14.1241 11.2385 12.7524 9.87622 11.7269 8.27305Z" fill="#333333"/>
</svg>
