<svg width="24" height="24" viewBox="0 0 24 24" fill="none" xmlns="http://www.w3.org/2000/svg">
<path d="M22.6023 10.0039C22.5606 9.7733 22.4393 9.56464 22.2595 9.41435C22.0797 9.26407 21.8528 9.18171 21.6184 9.18165H12.2C12.0687 9.18162 11.9386 9.20746 11.8173 9.2577C11.6959 9.30795 11.5857 9.38161 11.4928 9.47447C11.4 9.56734 11.3263 9.67759 11.2761 9.79893C11.2258 9.92027 11.2 10.0503 11.2 10.1817V14.0498C11.2 14.1811 11.2258 14.3112 11.2761 14.4325C11.3263 14.5539 11.4 14.6641 11.4928 14.757C11.5857 14.8499 11.6959 14.9235 11.8173 14.9738C11.9386 15.024 12.0687 15.0498 12.2 15.0498H16.1624C15.8801 15.5264 15.493 15.9324 15.0306 16.2373C14.1854 16.7731 13.2004 17.0464 12.2 17.0225C11.1625 17.0106 10.1551 16.672 9.32099 16.0549C8.48689 15.4377 7.86852 14.5734 7.55376 13.5847L7.55347 13.583C7.2032 12.5564 7.2032 11.4426 7.55347 10.416L7.55371 10.4144C7.86869 9.42587 8.48715 8.56176 9.32123 7.9448C10.1553 7.32784 11.1626 6.9894 12.2 6.97755C12.7764 6.96432 13.3498 7.06509 13.8871 7.27407C14.4245 7.48305 14.9153 7.79613 15.3313 8.19532C15.5203 8.37588 15.7724 8.47534 16.0337 8.47242C16.295 8.4695 16.5449 8.36444 16.7297 8.1797L19.5979 5.31153C19.6929 5.21664 19.7678 5.10356 19.8182 4.97905C19.8685 4.85455 19.8932 4.72118 19.8909 4.5869C19.8885 4.45263 19.8591 4.32021 19.8044 4.19756C19.7497 4.07491 19.6708 3.96455 19.5725 3.87306C17.5767 2.00177 14.9358 0.972625 12.2 1.00001C10.1599 0.993978 8.15876 1.55803 6.42213 2.62855C4.6855 3.69908 3.28251 5.2335 2.37134 7.05879L2.36987 7.06056C1.5974 8.59232 1.19662 10.2845 1.2 12C1.20244 13.7149 1.60292 15.4057 2.36992 16.9395L2.37139 16.9412C3.28255 18.7665 4.68554 20.3009 6.42216 21.3715C8.15878 22.442 10.1599 23.006 12.2 23C14.8854 23.068 17.4951 22.1067 19.4947 20.313L19.4954 20.3125L19.4962 20.3117L19.4964 20.3115L19.4965 20.3114C20.5803 19.2688 21.4341 18.011 22.003 16.6188C22.572 15.2266 22.8435 13.7309 22.8001 12.2276C22.8005 11.4819 22.7343 10.7378 22.6023 10.0039ZM12.2 3.00001C14.0711 2.9818 15.898 3.56856 17.4085 4.67286L15.9548 6.12601C14.8526 5.36307 13.5404 4.96172 12.2 4.97755C10.9762 4.98385 9.77623 5.31614 8.72353 5.94024C7.67084 6.56433 6.80346 7.45768 6.21069 8.52833L5.14148 7.69959L4.55648 7.24592C5.36125 5.94377 6.48647 4.86972 7.82464 4.12637C9.16281 3.38303 10.6692 2.99523 12.2 3.00001ZM3.67944 14.9033C3.04012 13.0206 3.04012 10.9794 3.67944 9.09669L5.46167 10.4785C5.2338 11.4797 5.2338 12.5193 5.46167 13.5205L3.67944 14.9033ZM12.2 21C10.6692 21.0048 9.16277 20.6169 7.82458 19.8736C6.4864 19.1302 5.36117 18.0561 4.5564 16.7539L4.93481 16.4604L6.21069 15.4707C6.8032 16.5417 7.67049 17.4353 8.72323 18.0596C9.77596 18.6839 10.9761 19.0163 12.2 19.0225C13.3457 19.0359 14.4783 18.7787 15.5057 18.2717L17.1974 19.585C15.7096 20.5436 13.9695 21.0363 12.2 21ZM18.7259 18.2393L18.5429 18.0973L17.1655 17.028C17.8877 16.2477 18.3732 15.2782 18.5652 14.2325C18.592 14.0881 18.5868 13.9396 18.5497 13.7976C18.5127 13.6555 18.4449 13.5233 18.351 13.4104C18.2571 13.2975 18.1395 13.2067 18.0066 13.1444C17.8737 13.0821 17.7286 13.0498 17.5818 13.0499H13.2V11.1817H20.7488C20.783 11.5274 20.8001 11.877 20.8001 12.2276C20.8586 14.4164 20.1216 16.5522 18.7258 18.2393H18.7259Z" fill="black"/>
</svg>
