<svg width="10" height="10" viewBox="0 0 10 10" fill="none" xmlns="http://www.w3.org/2000/svg">
<path d="M2.79168 8.04165L1.64584 7.79165C1.54168 7.77082 1.45834 7.71693 1.39584 7.62998C1.33334 7.54332 1.30904 7.4479 1.32293 7.34373L1.43751 6.16665L0.65626 5.27082C0.586816 5.19443 0.552094 5.10415 0.552094 4.99998C0.552094 4.89582 0.586816 4.80554 0.65626 4.72915L1.43751 3.83332L1.32293 2.65623C1.30904 2.55207 1.33334 2.45665 1.39584 2.36998C1.45834 2.28304 1.54168 2.22915 1.64584 2.20832L2.79168 1.95832L3.39584 0.937484C3.4514 0.847206 3.52779 0.788179 3.62501 0.760401C3.72223 0.732623 3.81945 0.736095 3.91668 0.770818L5.00001 1.22915L6.08334 0.770818C6.18057 0.736095 6.27779 0.732623 6.37501 0.760401C6.47223 0.788179 6.54862 0.847206 6.60418 0.937484L7.20834 1.95832L8.35418 2.20832C8.45834 2.22915 8.54168 2.28304 8.60418 2.36998C8.66668 2.45665 8.69098 2.55207 8.67709 2.65623L8.56251 3.83332L9.34376 4.72915C9.4132 4.80554 9.44793 4.89582 9.44793 4.99998C9.44793 5.10415 9.4132 5.19443 9.34376 5.27082L8.56251 6.16665L8.67709 7.34373C8.69098 7.4479 8.66668 7.54332 8.60418 7.62998C8.54168 7.71693 8.45834 7.77082 8.35418 7.79165L7.20834 8.04165L6.60418 9.06248C6.54862 9.15276 6.47223 9.21179 6.37501 9.23957C6.27779 9.26735 6.18057 9.26387 6.08334 9.22915L5.00001 8.77082L3.91668 9.22915C3.81945 9.26387 3.72223 9.26735 3.62501 9.23957C3.52779 9.21179 3.4514 9.15276 3.39584 9.06248L2.79168 8.04165ZM4.27084 6.18748C4.34723 6.26387 4.44445 6.30207 4.56251 6.30207C4.68057 6.30207 4.77779 6.26387 4.85418 6.18748L6.62501 4.41665C6.70834 4.33332 6.75001 4.23429 6.75001 4.11957C6.75001 4.00512 6.70834 3.90623 6.62501 3.8229C6.54168 3.73957 6.44279 3.6979 6.32834 3.6979C6.21362 3.6979 6.11459 3.73957 6.03126 3.8229L4.56251 5.29165L3.95834 4.6979C3.87501 4.62151 3.77612 4.58498 3.66168 4.58832C3.54695 4.59193 3.4514 4.63193 3.37501 4.70832C3.29862 4.78471 3.26043 4.88193 3.26043 4.99998C3.26043 5.11804 3.29862 5.21526 3.37501 5.29165L4.27084 6.18748Z" fill="#386DF4"/>
</svg>
