<svg width="24" height="24" viewBox="0 0 24 24" fill="none" xmlns="http://www.w3.org/2000/svg">
<path d="M12 22C10.2 22 8.53333 21.55 7 20.65C5.46667 19.75 4.25 18.5333 3.35 17C2.45 15.4667 2 13.8 2 12C2 10.2 2.45 8.53333 3.35 7C4.25 5.45 5.46667 4.23333 7 3.35C8.53333 2.45 10.2 2 12 2C13.8 2 15.4667 2.45 17 3.35C18.55 4.23333 19.7667 5.45 20.65 7C21.55 8.53333 22 10.2 22 12C22 13.8 21.55 15.4667 20.65 17C19.7667 18.5333 18.55 19.75 17 20.65C15.4667 21.55 13.8 22 12 22ZM12 20C13.4833 20 14.8333 19.65 16.05 18.95C17.2833 18.25 18.25 17.2917 18.95 16.075C19.65 14.8417 20 13.4833 20 12C20 10.5167 19.65 9.16667 18.95 7.95C18.25 6.71667 17.2833 5.75 16.05 5.05C14.8333 4.35 13.4833 4 12 4C10.5167 4 9.15833 4.35 7.925 5.05C6.70833 5.75 5.75 6.71667 5.05 7.95C4.35 9.16667 4 10.5167 4 12C4 13.4833 4.35 14.8417 5.05 16.075C5.75 17.2917 6.70833 18.25 7.925 18.95C9.15833 19.65 10.5167 20 12 20ZM13.5 12C13.5 12.4167 13.35 12.775 13.05 13.075C12.7667 13.3583 12.4167 13.5 12 13.5C11.5833 13.5 11.225 13.3583 10.925 13.075C10.6417 12.775 10.5 12.4167 10.5 12C10.5 11.5833 10.6417 11.2333 10.925 10.95C11.225 10.65 11.5833 10.5 12 10.5C12.4167 10.5 12.7667 10.65 13.05 10.95C13.35 11.2333 13.5 11.5833 13.5 12ZM9 12C9 12.4167 8.85 12.775 8.55 13.075C8.26667 13.3583 7.91667 13.5 7.5 13.5C7.08333 13.5 6.725 13.3583 6.425 13.075C6.14167 12.775 6 12.4167 6 12C6 11.5833 6.14167 11.2333 6.425 10.95C6.725 10.65 7.08333 10.5 7.5 10.5C7.91667 10.5 8.26667 10.65 8.55 10.95C8.85 11.2333 9 11.5833 9 12ZM18 12C18 12.4167 17.85 12.775 17.55 13.075C17.2667 13.3583 16.9167 13.5 16.5 13.5C16.0833 13.5 15.725 13.3583 15.425 13.075C15.1417 12.775 15 12.4167 15 12C15 11.5833 15.1417 11.2333 15.425 10.95C15.725 10.65 16.0833 10.5 16.5 10.5C16.9167 10.5 17.2667 10.65 17.55 10.95C17.85 11.2333 18 11.5833 18 12Z" fill="#3D3D40"/>
</svg>
