<svg width="24" height="24" viewBox="0 0 24 24" fill="none" xmlns="http://www.w3.org/2000/svg">
<path fill-rule="evenodd" clip-rule="evenodd" d="M19.2763 6.93302L12.75 3.16507C12.2859 2.89712 11.7141 2.89712 11.25 3.16507L4.72369 6.93302C4.25959 7.20097 3.97369 7.69616 3.97369 8.23206V15.768C3.97369 16.3039 4.25959 16.799 4.72369 17.067L11.25 20.8349C11.7141 21.1029 12.2859 21.1029 12.75 20.8349L19.2763 17.067C19.7404 16.799 20.0263 16.3039 20.0263 15.768V8.23206C20.0263 7.69616 19.7404 7.20097 19.2763 6.93302ZM13.5 1.86603C12.5718 1.33014 11.4282 1.33014 10.5 1.86604L3.97369 5.63398C3.04549 6.16988 2.47369 7.16026 2.47369 8.23206V15.768C2.47369 16.8398 3.04549 17.8301 3.97369 18.366L10.5 22.134C11.4282 22.6699 12.5718 22.6699 13.5 22.134L20.0263 18.366C20.9545 17.8301 21.5263 16.8398 21.5263 15.768V8.23206C21.5263 7.16026 20.9545 6.16988 20.0263 5.63398L13.5 1.86603Z" fill="black"/>
<path fill-rule="evenodd" clip-rule="evenodd" d="M8.96966 15.0052C8.67677 14.7123 8.67677 14.2374 8.96966 13.9445L13.9194 8.99478C14.2123 8.70188 14.6872 8.70188 14.9801 8.99478C15.273 9.28767 15.273 9.76254 14.9801 10.0554L10.0303 15.0052C9.73743 15.2981 9.26255 15.2981 8.96966 15.0052Z" fill="black"/>
<path fill-rule="evenodd" clip-rule="evenodd" d="M13 14.5C13 13.9477 13.4477 13.5 14 13.5H14.01C14.5623 13.5 15.01 13.9477 15.01 14.5C15.01 15.0523 14.5623 15.5 14.01 15.5H14C13.4477 15.5 13 15.0523 13 14.5Z" fill="black"/>
<path fill-rule="evenodd" clip-rule="evenodd" d="M9 9.5C9 8.94772 9.44772 8.5 10 8.5H10.01C10.5623 8.5 11.01 8.94772 11.01 9.5C11.01 10.0523 10.5623 10.5 10.01 10.5H10C9.44772 10.5 9 10.0523 9 9.5Z" fill="black"/>
</svg>
